<svg xmlns="http://www.w3.org/2000/svg" enable-background="new 0 0 512 512" viewBox="0 0 512 512">
  <defs/>
  <path fill="#af773f" d="M90.441,116.07 C74.501,61.895 86.777,33.81 119.248,78.351 C151.719,122.892 136.832,176.363 115.328,192.039 M144.89,271.582 C145.723,328.296 138.748,374.141 131.406,416.654 C126.798,415.509 122.252,414.882 118.843,414.882 C109.795,414.882 105.881,426.094 105.881,426.094 C101.041,432.743 105.958,442.088 114.182,442.088 L141.6,442.088 C145.681,442.088 148.946,439.785 150.61,436.654 L151.1,436.739 C151.1,436.739 173.525,388.287 179.255,355.189 C184.985,322.091 193.782,271.28 193.782,271.28 Z M436.222,240.613 L349.845,218.544 C306.714,255.787 347.811,340.705 364.205,363.283 C379.687,384.604 377.793,408.787 374.344,423.615 C370.269,422.7 366.336,422.201 363.303,422.201 C354.255,422.201 350.341,433.413 350.341,433.413 C345.501,440.062 350.418,449.407 358.642,449.407 L386.06,449.407 C389.155,449.407 391.781,448.083 393.595,446.078 C395.237,444.752 396.365,442.355 396.65,438.46 C398.166,417.768 414.857,401.256 409.082,383.326 C391.178,327.736 431.721,302.05 436.222,240.613 Z"/>
  <path fill="#d19b61" d="M469.391,137.423 C467.39,129.957 463.66,122.988 458.163,117.201 C455.42,114.31 452.156,111.799 448.54,109.833 C444.922,107.873 440.911,106.527 436.897,105.977 C432.884,105.427 428.919,105.597 425.34,106.317 C421.742,107.037 418.536,108.259 415.683,109.654 C414.962,109.998 414.292,110.379 413.607,110.741 C412.949,111.127 412.3,111.516 411.671,111.91 C410.987,112.365 410.309,112.816 409.636,113.264 C409.051,113.726 408.471,114.184 407.896,114.638 C407.073,115.279 406.525,115.827 405.916,116.4 C405.332,116.988 404.761,117.576 404.242,118.201 C403.185,119.433 402.27,120.742 401.455,122.065 C398.241,127.393 397.037,133.382 397.872,138.697 C398.268,141.348 399.17,143.791 400.371,145.808 C401.558,147.838 403.037,149.415 404.467,150.572 C405.899,151.728 407.283,152.531 408.496,153.047 C409.703,153.59 410.737,153.921 411.564,154.134 C412.391,154.378 413.028,154.449 413.45,154.528 C413.872,154.597 414.09,154.632 414.09,154.632 C415.775,154.904 417.556,154.25 418.642,152.784 C420.194,150.69 419.754,147.734 417.66,146.182 L416.957,145.661 C416.957,145.661 416.846,145.579 416.63,145.419 C416.417,145.262 416.092,145.035 415.734,144.717 C414.991,144.121 414.052,143.107 413.525,141.909 C412.978,140.702 412.94,139.394 413.379,137.896 C413.595,137.148 414,136.329 414.523,135.508 C415.061,134.688 415.805,133.88 416.644,133.151 C417.088,132.799 417.541,132.455 418.048,132.164 C418.295,132.015 418.558,131.88 418.809,131.738 C419.069,131.621 419.376,131.442 419.493,131.453 L419.606,131.423 L419.66,131.405 L419.832,131.325 L420.614,130.957 L420.81,130.865 C420.887,130.821 420.326,131.16 420.581,131.01 L420.619,130.995 L420.695,130.966 L420.999,130.848 L421.606,130.609 C422.419,130.321 423.225,130.051 424.018,129.836 C425.607,129.414 427.158,129.18 428.564,129.218 C429.974,129.204 431.232,129.445 432.373,129.85 C433.504,130.293 434.555,130.844 435.571,131.649 C436.589,132.449 437.539,133.503 438.458,134.718 C440.268,137.18 441.643,140.527 442.246,143.923 C442.818,147.328 442.64,150.748 441.753,153.305 C441.539,153.947 441.282,154.538 441.022,155.083 C440.893,155.342 440.706,155.681 440.706,155.681 C440.684,155.719 440.715,155.682 440.654,155.786 L440.387,156.218 L440.12,156.649 L440.087,156.703 C440.084,156.708 440.084,156.708 440.082,156.712 C440.147,156.607 440.265,156.416 440.237,156.46 L440.184,156.537 L440.079,156.691 C438.956,158.333 437.778,159.901 436.533,161.384 C435.257,162.839 433.955,164.243 432.582,165.543 C431.191,166.82 429.793,168.063 428.335,169.178 C425.43,171.418 422.429,173.337 419.519,174.875 C418.018,175.687 416.546,176.393 415.134,177.013 C406.256,171.55 396.324,168.836 386.604,168.787 C357.936,168.64 336.801,183.2 284.243,182.931 C246.307,182.737 211.93,177.277 190.691,163.681 C189.354,162.538 187.822,161.455 186.071,160.444 C185.791,160.227 185.504,160.023 185.219,159.815 C182.011,156.991 177.962,148.55 171.836,138.884 C174.645,121.036 174.186,99.23 168.252,83.103 C149.817,33.007 114.473,44.735 117.552,100.665 C74.137,96.507 48.871,120.81 44.726,157.562 C44.161,162.574 44.264,167.531 44.974,172.37 C46.281,181.283 33.088,188.832 32.101,197.787 C32.088,197.907 32.075,198.027 32.063,198.147 C30.474,214.181 61.841,226.421 73.329,227.717 C94.021,230.051 113.816,211.031 118.981,228.331 C123.465,261.916 146.556,312.002 179.31,330.367 C192.113,372.722 200.91,392.458 193.029,423.913 C188.587,422.843 184.237,422.257 180.947,422.257 C171.899,422.257 167.985,433.469 167.985,433.469 C163.145,440.118 168.062,449.463 176.286,449.463 L203.704,449.463 C209.813,449.463 214.093,444.306 213.909,438.929 L214.67,438.929 C214.67,438.929 224.813,402.859 224.813,379.363 C224.813,368.667 225.577,350.561 226.41,334.007 C272.456,323.744 287.091,311.661 310.515,305.351 C324.595,301.558 339.532,306.689 348.566,318.135 C361.907,335.037 378.665,348.191 396.273,353.505 C424.288,361.959 433.549,396.416 436.428,413.108 C436.767,415.076 437.274,417.001 437.914,418.876 C434.851,418.188 431.949,417.818 429.639,417.818 C421.64,417.818 418.179,429.03 418.179,429.03 C413.9,435.679 418.247,445.024 425.518,445.024 L449.758,445.024 C453.673,445.024 456.724,442.307 458.053,438.768 C459.232,437.877 459.953,435.813 459.953,432.09 C459.953,325.889 429.941,356.202 442.583,273.408 C443.062,270.862 444.948,259.276 445.562,255.998 C445.562,255.998 445.535,246.274 445.561,241.151 C445.653,223.141 441.571,208.623 434.959,197.442 C438.027,196.179 441.138,194.629 444.213,192.726 C446.741,191.16 449.268,189.395 451.676,187.353 C452.887,186.341 454.074,185.268 455.247,184.153 C456.413,183.03 457.522,181.825 458.621,180.591 C459.706,179.345 460.769,178.058 461.786,176.719 C462.79,175.37 463.747,173.971 464.649,172.528 L465.154,171.718 L465.41,171.281 L465.667,170.843 L466.103,170.056 C466.757,168.87 467.165,167.983 467.606,167.004 C468.475,165.066 469.124,163.061 469.648,161.054 C471.718,152.99 471.418,144.876 469.391,137.423 Z"/>
  <path fill="#eadfd6" d="M78.62,213.947 C80.502,218.296 78.474,223.36 74.099,225.18 C67.227,228.039 57.104,231.253 48.32,230.262 C31.637,228.38 16.077,220.287 13.383,202.398 C10.689,184.509 4.382,164.286 41.736,168.5 C61.504,170.729 72.195,199.098 78.62,213.947 Z"/>
  <path fill="#af773f" d="M117.69,150.621 C114.45,160.872 119.584,167.172 116.774,177.943 C116.659,178.415 116.534,178.887 116.385,179.358 C112.812,190.662 100.752,196.93 89.448,193.357 C78.144,189.784 71.876,177.724 75.449,166.42 C77.844,158.84 78.753,160.62 80.346,154.18 C81.838,148.152 80.951,145.992 83.581,139.842 L83.581,139.841 C86.558,130.422 96.606,125.2 106.025,128.177 C115.445,131.154 120.667,141.202 117.69,150.621 Z M51.17,212.394 C52.002,212.488 52.753,211.889 52.846,211.057 C52.94,210.225 52.341,209.474 51.509,209.381 C50.677,209.287 49.926,209.886 49.833,210.718 C49.739,211.55 50.338,212.301 51.17,212.394 Z M49.562,195.393 C50.394,195.487 51.145,194.888 51.238,194.056 C51.331,193.224 50.733,192.473 49.901,192.38 C49.069,192.286 48.318,192.885 48.225,193.717 C48.132,194.549 48.73,195.299 49.562,195.393 Z M39.135,205.094 C39.967,205.188 40.718,204.589 40.811,203.757 C40.905,202.925 40.306,202.174 39.474,202.081 C38.642,201.987 37.891,202.586 37.798,203.418 C37.705,204.249 38.303,205 39.135,205.094 Z"/>
  <path fill="#2b3b47" d="M16.059,168.262 C16.059,168.262 20.672,168.901 25.285,169.539 C29.919,169.993 34.563,170.349 34.563,170.349 C38.188,170.627 40.901,173.791 40.623,177.415 C40.476,179.328 39.526,180.987 38.128,182.086 L32.767,186.269 C32.767,186.269 31.483,187.271 29.662,187.837 C28.762,188.029 27.676,188.571 26.59,188.463 C25.497,188.419 24.298,188.668 23.158,188.387 C22.017,188.119 20.876,187.851 19.807,187.599 C18.754,187.203 17.792,186.64 16.957,186.256 C11.958,184.753 10.383,167.621 16.059,168.262 Z M100.117,152.041 C95.438,151.513 91.218,154.878 90.69,159.557 L89.268,172.167 C88.74,176.846 92.105,181.066 96.784,181.594 C101.463,182.122 105.683,178.757 106.211,174.078 L107.633,161.468 C108.161,156.789 104.796,152.568 100.117,152.041 Z"/>
  <path fill="#ff9ddd" d="M124.657,95.384 C124.53,72.513 133.416,59.029 140.149,80.324 C143.175,89.897 144.388,99.914 142.644,109.111 C141.047,117.537 129.28,117.322 127.578,109.91 C126.622,105.744 124.69,101.288 124.657,95.384 Z"/>
</svg>

