<svg xmlns="http://www.w3.org/2000/svg" viewBox="0.0 0.0 256.0 256.0" height="256.0px" width="256.0px"><path fill="#9a9a9a" fill-opacity="1.0"  filling="0" d="M61.540000915527344 45.5 C59.32428741455078 46.52428436279297 57.152652740478516 47.59000015258789 55.03017807006836 48.68798065185547 C52.90769958496094 49.78596115112305 50.83437728881836 50.91621017456055 48.81528091430664 52.06956100463867 C46.79618453979492 53.2229118347168 44.83131408691406 54.39937210083008 42.92574691772461 55.58977127075195 C41.020179748535156 56.78017044067383 39.17390823364258 57.98451614379883 37.39201354980469 59.193641662597656 C35.6101188659668 60.402767181396484 33.89259719848633 61.61667251586914 32.24452209472656 62.826202392578125 C30.596446990966797 64.03572845458984 29.0178165435791 65.24087524414062 27.51370620727539 66.43247985839844 C26.00959587097168 67.62408447265625 24.58000373840332 68.8021469116211 23.230003356933594 69.95750427246094 C21.880002975463867 71.11286163330078 20.609594345092773 72.24551391601562 19.423851013183594 73.34630584716797 C18.238107681274414 74.44709014892578 17.137027740478516 75.5160140991211 16.125686645507812 76.54390716552734 C15.11434555053711 77.5718002319336 14.192742347717285 78.55866241455078 13.365948677062988 79.4953384399414 C12.539155960083008 80.43201446533203 11.807172775268555 81.3185043334961 11.175073623657227 82.14563751220703 C10.542974472045898 82.97277069091797 10.010758399963379 83.74055480957031 9.58349895477295 84.43982696533203 C9.15623950958252 85.13909912109375 8.83393669128418 85.76985931396484 8.621662139892578 86.32293701171875 C8.409387588500977 86.87602233886719 8.30714225769043 87.35142517089844 8.319999694824219 87.73999786376953 C8.35333251953125 88.68000030517578 8.535554885864258 89.86888885498047 8.915555000305176 91.19629669189453 C9.295555114746094 92.5237045288086 9.873332977294922 93.98963165283203 10.69777774810791 95.48370361328125 C11.522221565246582 96.977783203125 12.593332290649414 98.5 13.959999084472656 99.94000244140625 C14.564998626708984 100.58000183105469 15.421248435974121 101.35124969482422 16.435935974121094 102.15250396728516 C17.45062255859375 102.95375061035156 18.623748779296875 103.78500366210938 19.862497329711914 104.54500579833984 C21.101247787475586 105.30500793457031 22.405622482299805 105.9937515258789 23.682809829711914 106.51000213623047 C24.959997177124023 107.02625274658203 26.209997177124023 107.37000274658203 27.339996337890625 107.44000244140625 C27.839996337890625 107.47111511230469 28.685922622680664 107.23110961914062 29.794729232788086 106.77986145019531 C30.903535842895508 106.32861328125 32.27522277832031 105.6661148071289 33.82674789428711 104.85223388671875 C35.37826919555664 104.0383529663086 37.1096305847168 103.07308197021484 38.93777847290039 102.01629638671875 C40.765926361083984 100.95950317382812 42.69086456298828 99.81119537353516 44.629547119140625 98.63121795654297 C46.56822967529297 97.45124816894531 48.520660400390625 96.23961639404297 50.403785705566406 95.05618286132812 C52.28691482543945 93.87275695800781 54.10074234008789 92.717529296875 55.76222229003906 91.6503677368164 C57.4237060546875 90.58320617675781 58.93284225463867 89.60411071777344 60.20658493041992 88.77294921875 C61.48033142089844 87.94178771972656 62.51868438720703 87.258544921875 63.23860168457031 86.7831039428711 C63.958518981933594 86.30765533447266 64.36000061035156 86.04000091552734 64.36000061035156 86.04000091552734 L68.9857177734375 85.39714813232422 L73.61143493652344 84.75428771972656 L78.23714447021484 84.11143493652344 L82.86286163330078 83.46857452392578 L87.48857116699219 82.82571411132812 L92.11428833007812 82.182861328125 L96.73999786376953 81.54000091552734 L98.53091430664062 85.81454467773438 L100.32182312011719 90.08909606933594 L102.11272430419922 94.36363220214844 L103.90364074707031 98.63818359375 L105.69454956054688 102.91272735595703 L107.48545837402344 107.18727111816406 L109.2763671875 111.4618148803711 L111.06727600097656 115.73636627197266 L112.8581771850586 120.01091003417969 L114.64910125732422 124.28545379638672 L116.44000244140625 128.55999755859375 C116.44000244140625 128.55999755859375 116.69920349121094 128.93199157714844 117.18592071533203 129.58799743652344 C117.67263793945312 130.24400329589844 118.38687896728516 131.1840057373047 119.29695892333984 132.32000732421875 C120.20703887939453 133.4560089111328 121.31295776367188 134.7880096435547 122.58303833007812 136.22801208496094 C123.85311889648438 137.6680145263672 125.28736114501953 139.2160186767578 126.85408020019531 140.7840118408203 C128.42080688476562 142.35202026367188 130.1199951171875 143.94000244140625 131.9199981689453 145.4600067138672 C133.72000122070312 146.98001098632812 135.5095977783203 148.297607421875 137.23663330078125 149.4193572998047 C138.96368408203125 150.54112243652344 140.62815856933594 151.467041015625 142.17791748046875 152.20367431640625 C143.72767639160156 152.94032287597656 145.1627197265625 153.48768615722656 146.43087768554688 153.85232543945312 C147.69903564453125 154.2169647216797 148.80032348632812 154.3988800048828 149.68255615234375 154.40464782714844 C150.56480407714844 154.410400390625 151.22799682617188 154.239990234375 151.6199951171875 153.89999389648438 C152.11000061035156 153.47499084472656 152.11749267578125 152.44374084472656 151.8465576171875 151.08999633789062 C151.57562255859375 149.7362518310547 151.0262451171875 148.05999755859375 150.40249633789062 146.34500122070312 C149.77874755859375 144.6300048828125 149.08062744140625 142.87625122070312 148.51219177246094 141.36749267578125 C147.94375610351562 139.85874938964844 147.5050048828125 138.59500122070312 147.39999389648438 137.86000061035156 C147.25999450683594 136.8800048828125 147.0487518310547 135.5449981689453 146.96031188964844 134.11593627929688 C146.8718719482422 132.68687438964844 146.90625 131.16375732421875 147.2574920654297 129.8074951171875 C147.60873413085938 128.4512481689453 148.27687072753906 127.26187133789062 149.4559326171875 126.50031280517578 C150.635009765625 125.73875427246094 152.32501220703125 125.40499877929688 154.72000122070312 125.76000213623047 C155.91749572753906 125.9375 157.2425079345703 126.20249938964844 158.6444091796875 126.55070495605469 C160.04632568359375 126.89891052246094 161.525146484375 127.33031463623047 163.03030395507812 127.84062957763672 C164.53546142578125 128.35093688964844 166.0669403076172 128.94015502929688 167.5741729736328 129.60398864746094 C169.08140563964844 130.267822265625 170.56436157226562 131.00625610351562 171.9724884033203 131.81500244140625 C173.380615234375 132.62374877929688 174.71389770507812 133.5028076171875 175.9217529296875 134.44789123535156 C177.12960815429688 135.39297485351562 178.21202087402344 136.40406799316406 179.11842346191406 137.47686767578125 C180.02484130859375 138.5496826171875 180.75521850585938 139.68421936035156 181.25901794433594 140.8761749267578 C181.76280212402344 142.068115234375 182.0399932861328 143.3175048828125 182.0399932861328 144.6199951171875 C182.0399932861328 145.92250061035156 181.92999267578125 147.24249267578125 181.69847106933594 148.55526733398438 C181.46694946289062 149.8680419921875 181.11390686035156 151.173583984375 180.6278076171875 152.4471893310547 C180.14170837402344 153.7207794189453 179.52256774902344 154.96241760253906 178.7588653564453 156.1473846435547 C177.99514770507812 157.3323516845703 177.0868682861328 158.46063232421875 176.02249145507812 159.50750732421875 C174.95811462402344 160.55438232421875 173.73765563964844 161.5198516845703 172.3495635986328 162.37918090820312 C170.96148681640625 163.238525390625 169.40577697753906 163.99172973632812 167.6709442138672 164.61407470703125 C165.93609619140625 165.23641967773438 164.02212524414062 165.72789001464844 161.91748046875 166.0637969970703 C159.8128204345703 166.39968872070312 157.51751708984375 166.5800018310547 155.02000427246094 166.5800018310547 C153.4830780029297 166.5800018310547 151.8977508544922 166.54165649414062 150.27467346191406 166.47113037109375 C148.65158081054688 166.40060424804688 146.99073791503906 166.29788208007812 145.30276489257812 166.1691131591797 C143.6147918701172 166.0403594970703 141.89971923828125 165.88555908203125 140.16815185546875 165.7108917236328 C138.43658447265625 165.53622436523438 136.6885528564453 165.34165954589844 134.93467712402344 165.1333770751953 C133.18080139160156 164.9250946044922 131.4210968017578 164.7030792236328 129.66619873046875 164.47349548339844 C127.91129302978516 164.24391174316406 126.16120147705078 164.0067596435547 124.42655181884766 163.76817321777344 C122.69190216064453 163.52960205078125 120.97270202636719 163.2895965576172 119.27959442138672 163.05433654785156 C117.58648681640625 162.81906127929688 115.91946411132812 162.58853149414062 114.28917694091797 162.36888122558594 C112.65888977050781 162.14923095703125 111.06533813476562 161.9404754638672 109.51914978027344 161.74876403808594 C107.97296905517578 161.5570526123047 106.47415924072266 161.3823699951172 105.03337097167969 161.23089599609375 C103.59258270263672 161.0794219970703 102.20980834960938 160.9511260986328 100.89568328857422 160.85218811035156 C99.5815658569336 160.75326538085938 98.33610534667969 160.6836700439453 97.1699447631836 160.6495819091797 C96.0037841796875 160.61550903320312 94.91691589355469 160.61691284179688 93.91999816894531 160.66000366210938 C92.29999542236328 160.73001098632812 90.70218658447266 160.80874633789062 89.12323760986328 160.90234375 C87.54429626464844 160.99594116210938 85.98421478271484 161.1043701171875 84.43968200683594 161.23374938964844 C82.89514923095703 161.36312866210938 81.36616516113281 161.51344299316406 79.84941101074219 161.69078063964844 C78.33265686035156 161.8681182861328 76.828125 162.07249450683594 75.3324966430664 162.30999755859375 C73.83686828613281 162.54750061035156 72.35015106201172 162.81813049316406 70.8690185546875 163.1279754638672 C69.38788604736328 163.4378204345703 67.91233825683594 163.78688049316406 66.43905639648438 164.18125915527344 C64.96577453613281 164.57562255859375 63.4947624206543 165.01531982421875 62.02268981933594 165.50640869140625 C60.550621032714844 165.99749755859375 59.07749938964844 166.54000854492188 57.599998474121094 167.13999938964844 C55.847999572753906 167.84799194335938 54.05359649658203 168.6783905029297 52.30607986450195 169.56063842773438 C50.55855941772461 170.44287109375 48.85791778564453 171.376953125 47.29343795776367 172.2923126220703 C45.72895812988281 173.20767211914062 44.30064010620117 174.10430908203125 43.09776306152344 174.9116668701172 C41.89488220214844 175.71902465820312 40.917442321777344 176.43711853027344 40.254722595214844 176.995361328125 C39.592002868652344 177.5535888671875 39.24400329589844 177.95199584960938 39.30000305175781 178.1199951171875 C39.3466682434082 178.25999450683594 39.69055938720703 178.47833251953125 40.291297912597656 178.75286865234375 C40.89204025268555 179.02740478515625 41.749629974365234 179.358154296875 42.82370376586914 179.72296142578125 C43.89777755737305 180.08778381347656 45.188331604003906 180.48666381835938 46.654998779296875 180.8975067138672 C48.121665954589844 181.30833435058594 49.764442443847656 181.73110961914062 51.542964935302734 182.14370727539062 C53.32148361206055 182.55630493164062 55.235740661621094 182.95870971679688 57.2453727722168 183.32879638671875 C59.255001068115234 183.6988983154297 61.36000061035156 184.03668212890625 63.52000427246094 184.32000732421875 C64.96000671386719 184.50889587402344 66.54938507080078 184.673095703125 68.24296569824219 184.8242645263672 C69.9365463256836 184.97543334960938 71.73432159423828 185.11355590820312 73.59111785888672 185.2503204345703 C75.44790649414062 185.3870849609375 77.36370849609375 185.52247619628906 79.2933349609375 185.66815185546875 C81.22296905517578 185.81382751464844 83.16641998291016 185.9698028564453 85.07852172851562 186.147705078125 C86.9906234741211 186.32562255859375 88.8713607788086 186.52548217773438 90.6755599975586 186.7589569091797 C92.4797592163086 186.992431640625 94.20741271972656 187.25950622558594 95.81333923339844 187.5718536376953 C97.41926574707031 187.8842010498047 98.90345764160156 188.2418212890625 100.22074127197266 188.65635681152344 C101.53802490234375 189.07089233398438 102.68839263916016 189.5423583984375 103.62666320800781 190.08241271972656 C104.56494140625 190.62246704101562 105.29110717773438 191.23110961914062 105.76000213623047 191.9199981689453 C106.46333312988281 192.95333862304688 107.08055877685547 194.06222534179688 107.6143569946289 195.2539825439453 C108.14815521240234 196.44573974609375 108.59851837158203 197.72036743164062 108.96814727783203 199.08517456054688 C109.33777618408203 200.44998168945312 109.62667083740234 201.9049835205078 109.8375015258789 203.45748901367188 C110.04833221435547 205.00999450683594 110.18111419677734 206.6599884033203 110.23851776123047 208.41481018066406 C110.29592895507812 210.16961669921875 110.27796173095703 212.0292510986328 110.18731689453125 214.00100708007812 C110.09666442871094 215.9727783203125 109.93333435058594 218.05667114257812 109.69999694824219 220.25999450683594 C109.41999816894531 222.90399169921875 109.21839904785156 225.45120239257812 109.07727813720703 227.8345489501953 C108.9361572265625 230.21791076660156 108.85552215576172 232.43743896484375 108.81744384765625 234.4260711669922 C108.77936553955078 236.4147186279297 108.78384399414062 238.17247009277344 108.8129653930664 239.63230895996094 C108.84208679199219 241.0921630859375 108.89584350585938 242.2540740966797 108.9563217163086 243.05104064941406 C109.01679992675781 243.84799194335938 109.08399963378906 244.27999877929688 109.13999938964844 244.27999877929688 C109.19599914550781 244.27999877929688 109.68319702148438 244.02720642089844 110.47135925292969 243.54495239257812 C111.259521484375 243.06271362304688 112.34864044189453 242.3510284423828 113.60848236083984 241.4332733154297 C114.86832427978516 240.51551818847656 116.29888153076172 239.3916778564453 117.7699203491211 238.0851287841797 C119.24095916748047 236.778564453125 120.75247955322266 235.28927612304688 122.17424011230469 233.64064025878906 C123.59600067138672 231.99200439453125 124.9280014038086 230.1840057373047 126.04000091552734 228.24000549316406 C127.04000091552734 226.4888916015625 127.92888641357422 224.69580078125 128.72364807128906 222.88629150390625 C129.51840209960938 221.07676696777344 130.2190399169922 219.25082397460938 130.842529296875 217.43397521972656 C131.4660186767578 215.61712646484375 132.01234436035156 213.80938720703125 132.49851989746094 212.0363006591797 C132.9846954345703 210.26321411132812 133.41070556640625 208.5247802734375 133.7935333251953 206.84652709960938 C134.17636108398438 205.1682891845703 134.51600646972656 203.55023193359375 134.82943725585938 202.01791381835938 C135.14288330078125 200.485595703125 135.43011474609375 199.0390167236328 135.70814514160156 197.70372009277344 C135.98617553710938 196.368408203125 136.25497436523438 195.14437866210938 136.53155517578125 194.0571746826172 C136.80812072753906 192.96995544433594 137.0924530029297 192.01956176757812 137.4015350341797 191.23150634765625 C137.7106170654297 190.44346618652344 138.04443359375 189.81777954101562 138.4199981689453 189.3800048828125 C138.98333740234375 188.7233428955078 139.84165954589844 188.1461181640625 140.9335174560547 187.63333129882812 C142.02537536621094 187.1205596923828 143.35073852539062 186.67222595214844 144.84814453125 186.27333068847656 C146.34555053710938 185.87445068359375 148.01499938964844 185.52499389648438 149.7949981689453 185.2100067138672 C151.5749969482422 184.89500427246094 153.46556091308594 184.61444091796875 155.40518188476562 184.35333251953125 C157.34481811523438 184.09222412109375 159.33352661132812 183.85055541992188 161.309814453125 183.61334228515625 C163.28611755371094 183.37611389160156 165.25 183.14334106445312 167.13999938964844 182.89999389648438 C167.625 182.83749389648438 168.2045135498047 182.7728729248047 168.8698272705078 182.70166015625 C169.53514099121094 182.6304473876953 170.28623962402344 182.55262756347656 171.1144256591797 182.46372985839844 C171.94261169433594 182.3748321533203 172.84786987304688 182.2748565673828 173.8214874267578 182.15933227539062 C174.79510498046875 182.04379272460938 175.8370819091797 181.91270446777344 176.93870544433594 181.76156616210938 C178.0403289794922 181.6104278564453 179.2015838623047 181.4392547607422 180.4137725830078 181.24356079101562 C181.62596130371094 181.04786682128906 182.88906860351562 180.82765197753906 184.1943817138672 180.57843017578125 C185.49969482421875 180.32920837402344 186.8472137451172 180.05099487304688 188.22821044921875 179.73928833007812 C189.6092071533203 179.42758178710938 191.02371215820312 179.0823974609375 192.4629669189453 178.69924926757812 C193.9022216796875 178.31610107421875 195.3662567138672 177.89498901367188 196.84632873535156 177.4314422607422 C198.32640075683594 176.9678955078125 199.82254028320312 176.46188354492188 201.32598876953125 175.90896606445312 C202.82945251464844 175.35604858398438 204.34024047851562 174.75619506835938 205.8496551513672 174.10494995117188 C207.35906982421875 173.45370483398438 208.86708068847656 172.7510528564453 210.36500549316406 171.9925079345703 C211.8629150390625 171.2339630126953 213.35073852539062 170.41954040527344 214.81973266601562 169.5447540283203 C216.28872680664062 168.6699676513672 217.7388916015625 167.73480224609375 219.16151428222656 166.73480224609375 C220.58413696289062 165.73480224609375 221.97923278808594 164.66995239257812 223.3380584716797 163.5357666015625 C224.69688415527344 162.40158081054688 226.0194549560547 161.1980743408203 227.2970428466797 159.92076110839844 C228.5746307373047 158.64344787597656 229.8072509765625 157.29232788085938 230.98617553710938 155.8629150390625 C232.16510009765625 154.43350219726562 233.29031372070312 152.92581176757812 234.35313415527344 151.33534240722656 C235.41595458984375 149.744873046875 236.41635131835938 148.07164001464844 237.34561157226562 146.31114196777344 C238.27488708496094 144.5506591796875 239.1330108642578 142.70291137695312 239.9113006591797 140.76344299316406 C240.68959045410156 138.823974609375 241.38803100585938 136.7927703857422 241.99789428710938 134.6653594970703 C242.60777282714844 132.53794860839844 243.1290740966797 130.3143310546875 243.55308532714844 127.99002075195312 C243.97711181640625 125.66571044921875 244.3038330078125 123.24070739746094 244.52455139160156 120.71053314208984 C244.7452850341797 118.18035888671875 244.86000061035156 115.54500579833984 244.86000061035156 112.80000305175781 C244.86000061035156 110.01368713378906 244.7203826904297 107.34127807617188 244.45570373535156 104.77833557128906 C244.19100952148438 102.21539306640625 243.80123901367188 99.76192474365234 243.30091857910156 97.41349792480469 C242.80059814453125 95.0650634765625 242.1897430419922 92.82167053222656 241.4828643798828 90.67887115478516 C240.77598571777344 88.53607177734375 239.9730987548828 86.49388122558594 239.08871459960938 84.5478515625 C238.204345703125 82.60182189941406 237.2384796142578 80.751953125 236.2056884765625 78.99382019042969 C235.17288208007812 77.23568725585938 234.07313537597656 75.56928253173828 232.92095947265625 73.99017333984375 C231.768798828125 72.41106414794922 230.564208984375 70.91925048828125 229.32174682617188 69.51029968261719 C228.07928466796875 68.10134887695312 226.79893493652344 66.77525329589844 225.49522399902344 65.527587890625 C224.1915283203125 64.27992248535156 222.86447143554688 63.11068344116211 221.5286102294922 62.01543045043945 C220.1927490234375 60.92018127441406 218.84805297851562 59.898921966552734 217.50909423828125 58.94721603393555 C216.1701202392578 57.99551010131836 214.8368682861328 57.11336135864258 213.52386474609375 56.29633331298828 C212.2108612060547 55.479305267333984 210.9180908203125 54.72739791870117 209.66012573242188 54.03617477416992 C208.4021453857422 53.34495162963867 207.17893981933594 52.714412689208984 206.00506591796875 52.1401252746582 C204.8311767578125 51.56583786010742 203.70660400390625 51.04780197143555 202.6458740234375 50.58157730102539 C201.58514404296875 50.1153564453125 200.58827209472656 49.70094680786133 199.66976928710938 49.333919525146484 C198.7512664794922 48.96689224243164 197.91114807128906 48.64724349975586 197.16392517089844 48.37054443359375 C196.41671752929688 48.093841552734375 195.7624053955078 47.860084533691406 195.21554565429688 47.66483688354492 C194.668701171875 47.46958923339844 194.22927856445312 47.3128547668457 193.91184997558594 47.19019317626953 C193.5944061279297 47.06753158569336 193.39895629882812 46.97894287109375 193.33999633789062 46.91999816894531 C193.05999755859375 46.63999938964844 192.73500061035156 45.912498474121094 192.46437072753906 44.86156463623047 C192.19374084472656 43.81062698364258 191.9774932861328 42.43625259399414 191.9149932861328 40.86250305175781 C191.8524932861328 39.288753509521484 191.94374084472656 37.515628814697266 192.28811645507812 35.66719055175781 C192.6324920654297 33.818756103515625 193.22999572753906 31.895004272460938 194.17999267578125 30.020004272460938 C194.92999267578125 28.540002822875977 195.80999755859375 26.867502212524414 196.68312072753906 25.15593910217285 C197.55624389648438 23.44437599182129 198.42250061035156 21.693750381469727 199.14498901367188 20.057498931884766 C199.86749267578125 18.421249389648438 200.4462432861328 16.899372100830078 200.74436950683594 15.645310401916504 C201.04251098632812 14.391246795654297 201.05999755859375 13.404996871948242 200.66000366210938 12.839996337890625 C200.41250610351562 12.489996910095215 199.91000366210938 12.23187255859375 199.19375610351562 12.061872482299805 C198.47750854492188 11.891873359680176 197.54750061035156 11.809998512268066 196.44500732421875 11.812499046325684 C195.34251403808594 11.8149995803833 194.0675048828125 11.901875495910645 192.6612548828125 12.069375038146973 C191.2550048828125 12.236875534057617 189.71749877929688 12.485000610351562 188.0900115966797 12.810001373291016 C186.46250915527344 13.135002136230469 184.74501037597656 13.536876678466797 182.978759765625 14.011877059936523 C181.21250915527344 14.48687744140625 179.3975067138672 15.035002708435059 177.57501220703125 15.65250301361084 C175.75250244140625 16.270004272460938 173.92251586914062 16.956878662109375 172.12625122070312 17.709379196166992 C170.3300018310547 18.46187973022461 168.5675048828125 19.28000259399414 166.8800048828125 20.160003662109375 C164.6300048828125 21.333335876464844 162.51889038085938 22.561113357543945 160.56288146972656 23.792593002319336 C158.6068572998047 25.02407455444336 156.80593872070312 26.259258270263672 155.17630004882812 27.447406768798828 C153.54666137695312 28.635555267333984 152.0883331298828 29.77666473388672 150.8175048828125 30.819997787475586 C149.5466766357422 31.863330841064453 148.4633331298828 32.80888748168945 147.58370971679688 33.60592269897461 C146.70407104492188 34.40296173095703 146.0281524658203 35.05147933959961 145.57212829589844 35.500736236572266 C145.11611938476562 35.94999694824219 144.8800048828125 36.19999694824219 144.8800048828125 36.19999694824219 C144.8800048828125 36.19999694824219 144.70028686523438 36.18193435668945 144.3555908203125 36.1508903503418 C144.01089477539062 36.11984634399414 143.50123596191406 36.07582092285156 142.8413543701172 36.02389144897461 C142.1814727783203 35.97196578979492 141.37136840820312 35.91213607788086 140.42581176757812 35.849483489990234 C139.48023986816406 35.786834716796875 138.3992156982422 35.72136306762695 137.19747924804688 35.65814971923828 C135.9957275390625 35.59493637084961 134.67327880859375 35.53398513793945 133.24485778808594 35.48037338256836 C131.81643676757812 35.426761627197266 130.28207397460938 35.380489349365234 128.65647888183594 35.34663391113281 C127.03089904785156 35.312782287597656 125.3141098022461 35.29134750366211 123.52086639404297 35.287418365478516 C121.72762298583984 35.283485412597656 119.85792541503906 35.297054290771484 117.92652893066406 35.33320236206055 C115.99513244628906 35.36935043334961 114.00202941894531 35.42808151245117 111.96198272705078 35.51447296142578 C109.92193603515625 35.60086441040039 107.8349380493164 35.71491622924805 105.71573638916016 35.86171340942383 C103.59654235839844 36.008506774902344 101.44515228271484 36.188045501708984 99.27632141113281 36.40540313720703 C97.10749053955078 36.62276077270508 94.92121124267578 36.8779411315918 92.73223876953125 37.176025390625 C90.54327392578125 37.4741096496582 88.35160827636719 37.815093994140625 86.17201232910156 38.204063415527344 C83.99241638183594 38.59303283691406 81.82488250732422 39.02998352050781 79.68415832519531 39.519996643066406 C77.54344177246094 40.010009765625 75.42953491210938 40.55308532714844 73.3572006225586 41.1543083190918 C71.28486633300781 41.755531311035156 69.25408935546875 42.414894104003906 67.2796401977539 43.137481689453125 C65.30519104003906 43.860069274902344 63.38705825805664 44.64588165283203 61.540000915527344 45.5"></path>
<path fill="#e0e0e0" fill-opacity="1.0"  filling="0" d="M69.41999816894531 73.63999938964844 C70.55999755859375 73.13555145263672 71.7807388305664 72.64173126220703 73.06754302978516 72.16131591796875 C74.3543472290039 71.680908203125 75.70721435546875 71.21390533447266 77.11146545410156 70.76313018798828 C78.51571655273438 70.31234741210938 79.97135925292969 69.87777709960938 81.46370697021484 69.46221923828125 C82.9560546875 69.04666137695312 84.485107421875 68.6501235961914 86.03618621826172 68.275390625 C87.58727264404297 67.9006576538086 89.16038513183594 67.54773712158203 90.74085235595703 67.21942138671875 C92.32131958007812 66.89111328125 93.90913391113281 66.58740234375 95.48963165283203 66.31111145019531 C97.07012176513672 66.0348129272461 98.64329528808594 65.78592681884766 100.1944580078125 65.56724548339844 C101.74562072753906 65.34855651855469 103.27478790283203 65.16007995605469 104.76727294921875 65.00460815429688 C106.25975036621094 64.84913635253906 107.71556091308594 64.72666931152344 109.12000274658203 64.63999938964844 C111.63777923583984 64.48444366455078 114.11407470703125 64.37901306152344 116.52702331542969 64.31448364257812 C118.93997192382812 64.24995422363281 121.2895736694336 64.22633361816406 123.55396270751953 64.23440551757812 C125.81835174560547 64.24246978759766 127.99752807617188 64.2822265625 130.0696258544922 64.34444427490234 C132.1417236328125 64.40666961669922 134.10675048828125 64.4913558959961 135.9428253173828 64.58930206298828 C137.77890014648438 64.68724822998047 139.4860382080078 64.7984390258789 141.0423583984375 64.91366577148438 C142.5986785888672 65.02889251708984 144.0041961669922 65.14815521240234 145.23703002929688 65.26222229003906 C146.46987915039062 65.37629699707031 147.53004455566406 65.48518371582031 148.39566040039062 65.57967376708984 C149.26129150390625 65.67416381835938 149.932373046875 65.75424194335938 150.38705444335938 65.81069946289062 C150.84173583984375 65.8671646118164 151.0800018310547 65.9000015258789 151.0800018310547 65.9000015258789 C151.0800018310547 65.9000015258789 151.3088836669922 66.3772201538086 151.72129821777344 67.21231842041016 C152.1337127685547 68.04740905761719 152.72962951660156 69.24037170410156 153.46371459960938 70.6718521118164 C154.19778442382812 72.10333251953125 155.07000732421875 73.7733383178711 156.03500366210938 75.5625 C157.0 77.35166931152344 158.0577850341797 79.26000213623047 159.1629638671875 81.16815185546875 C160.26815795898438 83.0762939453125 161.42074584960938 84.98426055908203 162.57537841796875 86.77268981933594 C163.72999572753906 88.56111145019531 164.88665771484375 90.2300033569336 166.0 91.66000366210938 C167.45999145507812 93.53500366210938 169.00030517578125 95.35688018798828 170.58245849609375 97.10328674316406 C172.16461181640625 98.84969329833984 173.78858947753906 100.5206298828125 175.4159393310547 102.09375 C177.0432891845703 103.66687774658203 178.67398071289062 105.1421890258789 180.2695770263672 106.49734497070312 C181.8651580810547 107.85250091552734 183.42562866210938 109.0875015258789 184.91250610351562 110.18000030517578 C186.39938354492188 111.27249908447266 187.8126678466797 112.22250366210938 189.11387634277344 113.00765991210938 C190.4150848388672 113.79281616210938 191.60423278808594 114.41313171386719 192.642822265625 114.84625244140625 C193.68142700195312 115.27937316894531 194.5694580078125 115.52531433105469 195.26849365234375 115.56172180175781 C195.96749877929688 115.59812927246094 196.47750854492188 115.42500305175781 196.75999450683594 115.0199966430664 C197.07333374023438 114.56999969482422 197.29222106933594 113.80055236816406 197.4257354736328 112.79027557373047 C197.5592498779297 111.77999877929688 197.60740661621094 110.52888488769531 197.57925415039062 109.11555480957031 C197.55111694335938 107.70222473144531 197.44667053222656 106.12667083740234 197.27499389648438 104.4675064086914 C197.10333251953125 102.80834197998047 196.86444091796875 101.06555938720703 196.56741333007812 99.31778717041016 C196.2703857421875 97.57000732421875 195.91519165039062 95.81723022460938 195.51092529296875 94.1380615234375 C195.10667419433594 92.45889282226562 194.65333557128906 90.85333251953125 194.16000366210938 89.4000015258789 C193.7949981689453 88.32499694824219 193.22500610351562 86.80249786376953 192.5753173828125 85.1234359741211 C191.92562866210938 83.44437408447266 191.19625854492188 81.60874938964844 190.5124969482422 79.90750122070312 C189.82875061035156 78.20625305175781 189.1906280517578 76.63937377929688 188.72344970703125 75.49781036376953 C188.25625610351562 74.35624694824219 187.9600067138672 73.63999938964844 187.9600067138672 73.63999938964844 C187.9600067138672 73.63999938964844 188.28125 73.66625213623047 188.8665313720703 73.74519348144531 C189.45179748535156 73.82414245605469 190.3011016845703 73.95578002929688 191.35719299316406 74.16656494140625 C192.4132843017578 74.37734985351562 193.67617797851562 74.66726684570312 195.08863830566406 75.06277465820312 C196.5010986328125 75.45828247070312 198.06312561035156 75.9593734741211 199.71749877929688 76.59249877929688 C201.3718719482422 77.22562408447266 203.11859130859375 77.99078369140625 204.9004364013672 78.91441345214844 C206.68226623535156 79.83805084228516 208.4992218017578 80.92015838623047 210.2940673828125 82.18719482421875 C212.0889129638672 83.4542236328125 213.8616485595703 84.90617370605469 215.55503845214844 86.56949615478516 C217.24844360351562 88.23281860351562 218.86248779296875 90.10749816894531 220.33999633789062 92.22000122070312 C221.07875061035156 93.27625274658203 221.7899932861328 94.40617370605469 222.4679718017578 95.60014343261719 C223.1459503173828 96.79411315917969 223.79066467285156 98.05213165283203 224.39633178710938 99.36457061767578 C225.0019989013672 100.67700958251953 225.56861877441406 102.04387664794922 226.09042358398438 103.4555435180664 C226.6122283935547 104.8672103881836 227.08921813964844 106.32367706298828 227.515625 107.81531524658203 C227.94203186035156 109.30695343017578 228.31785583496094 110.83377075195312 228.63731384277344 112.38613891601562 C228.95677185058594 113.93850708007812 229.21987915039062 115.51642608642578 229.42086791992188 117.11027526855469 C229.62184143066406 118.7041244506836 229.7606964111328 120.31389617919922 229.83163452148438 121.92997741699219 C229.902587890625 123.54605865478516 229.90562438964844 125.16844177246094 229.8350067138672 126.7874984741211 C229.76438903808594 128.40655517578125 229.62008666992188 130.02230834960938 229.39634704589844 131.62509155273438 C229.172607421875 133.22789001464844 228.8694305419922 134.8177490234375 228.48101806640625 136.38502502441406 C228.09262084960938 137.9523162841797 227.61900329589844 139.4970245361328 227.05441284179688 141.00955200195312 C226.48980712890625 142.52207946777344 225.834228515625 144.00241088867188 225.08187866210938 145.44091796875 C224.32952880859375 146.8794403076172 223.48043823242188 148.27613830566406 222.52880859375 149.62139892578125 C221.57717895507812 150.96665954589844 220.52301025390625 152.26048278808594 219.3605499267578 153.49322509765625 C218.19808959960938 154.72598266601562 216.9273223876953 155.89767456054688 215.54248046875 156.99867248535156 C214.15765380859375 158.0996856689453 212.65875244140625 159.1300048828125 211.0399932861328 160.0800018310547 C208.22499084472656 161.73500061035156 205.56375122070312 163.15219116210938 203.06179809570312 164.3651580810547 C200.55984497070312 165.578125 198.21719360351562 166.58688354492188 196.0393829345703 167.4250030517578 C193.861572265625 168.26312255859375 191.84860229492188 168.93063354492188 190.0060272216797 169.46109008789062 C188.1634521484375 169.99156188964844 186.4912567138672 170.38499450683594 184.99501037597656 170.6750030517578 C183.49874877929688 170.96499633789062 182.17843627929688 171.1515655517578 181.03961181640625 171.26828002929688 C179.90078735351562 171.38499450683594 178.9434356689453 171.43186950683594 178.17312622070312 171.4425048828125 C177.40280151367188 171.453125 176.81951904296875 171.427490234375 176.42881774902344 171.3992156982422 C176.03811645507812 171.37094116210938 175.83999633789062 171.33999633789062 175.83999633789062 171.33999633789062 C175.83999633789062 171.33999633789062 176.21499633789062 170.92555236816406 176.83009338378906 170.1861114501953 C177.4451904296875 169.44667053222656 178.3003692626953 168.38221740722656 179.2607421875 167.0822296142578 C180.2211151123047 165.7822265625 181.2866668701172 164.24667358398438 182.32249450683594 162.56500244140625 C183.3583221435547 160.88333129882812 184.36444091796875 159.05555725097656 185.20591735839844 157.17111206054688 C186.04739379882812 155.2866668701172 186.72425842285156 153.34555053710938 187.1015625 151.43722534179688 C187.4788818359375 149.5288848876953 187.55667114257812 147.6533203125 187.1999969482422 145.89999389648438 C186.7480010986328 143.68399047851562 186.19119262695312 141.79119873046875 185.52207946777344 140.1681671142578 C184.85296630859375 138.54513549804688 184.07151794433594 137.1918487548828 183.1702423095703 136.0548858642578 C182.2689666748047 134.9179229736328 181.24783325195312 133.99728393554688 180.099365234375 133.23953247070312 C178.9508819580078 132.4817657470703 177.67503356933594 131.8868865966797 176.26431274414062 131.4014434814453 C174.8535919189453 130.91600036621094 173.3079833984375 130.54000854492188 171.6199951171875 130.22000122070312 C171.209228515625 130.14308166503906 170.55892944335938 130.07798767089844 169.702880859375 130.0232391357422 C168.84683227539062 129.96849060058594 167.7850341796875 129.92408752441406 166.55125427246094 129.88853454589844 C165.31747436523438 129.8529815673828 163.91171264648438 129.82626342773438 162.36773681640625 129.80691528320312 C160.82376098632812 129.78756713867188 159.14158630371094 129.7755584716797 157.35498046875 129.76942443847656 C155.56837463378906 129.76329040527344 153.6773223876953 129.7630157470703 151.7156219482422 129.76710510253906 C149.75392150878906 129.77120971679688 147.7215576171875 129.7796630859375 145.65231323242188 129.791015625 C143.58306884765625 129.80235290527344 141.4769287109375 129.8165740966797 139.36767578125 129.83218383789062 C137.2584228515625 129.8477783203125 135.1460723876953 129.86477661132812 133.06436157226562 129.88165283203125 C130.982666015625 129.89852905273438 128.93162536621094 129.91529846191406 126.94500732421875 129.9304656982422 C124.9583969116211 129.9456329345703 123.03622436523438 129.95919799804688 121.2122573852539 129.96966552734375 C119.38829040527344 129.98013305664062 117.66252136230469 129.9875030517578 116.06874084472656 129.99029541015625 C114.47496032714844 129.99307250976562 113.0131607055664 129.99127197265625 111.71710968017578 129.98338317871094 C110.42106628417969 129.97549438476562 109.290771484375 129.9615478515625 108.36000061035156 129.94000244140625 C107.01555633544922 129.9088897705078 105.5955581665039 129.87086486816406 104.11613464355469 129.8225555419922 C102.63671112060547 129.7742462158203 101.09786224365234 129.71563720703125 99.5157241821289 129.64337158203125 C97.93358612060547 129.57110595703125 96.30815124511719 129.4851837158203 94.65555572509766 129.38221740722656 C93.00296020507812 129.2792510986328 91.32321166992188 129.1592559814453 89.6324234008789 129.0188446044922 C87.94164276123047 128.87843322753906 86.23983001708984 128.71762084960938 84.54312896728516 128.5330047607422 C82.84642028808594 128.34840393066406 81.15481567382812 128.13999938964844 79.48444366455078 127.90444946289062 C77.81407165527344 127.66889190673828 76.16493225097656 127.40618133544922 74.55316925048828 127.11293029785156 C72.94139862060547 126.8196792602539 71.36699676513672 126.49589538574219 69.8460922241211 126.13819122314453 C68.32518005371094 125.7804946899414 66.85777282714844 125.38888549804688 65.45999908447266 124.95999908447266 C63.45333480834961 124.34666442871094 61.637779235839844 123.62000274658203 60.108890533447266 122.9237060546875 C58.58000183105469 122.22740936279297 57.3377799987793 121.56148529052734 56.477779388427734 121.06963348388672 C55.61777877807617 120.5777816772461 55.13999938964844 120.26000213623047 55.13999938964844 120.26000213623047 L55.23333740234375 116.8800048828125 L55.32666778564453 113.50000762939453 L55.41999816894531 110.12000274658203 C55.41999816894531 110.12000274658203 54.77499771118164 110.24874877929688 53.714996337890625 110.4331283569336 C52.654998779296875 110.61750030517578 51.179996490478516 110.85750579833984 49.52000045776367 111.08000183105469 C47.86000061035156 111.30250549316406 46.01499938964844 111.50749969482422 44.21500015258789 111.62187957763672 C42.415000915527344 111.73625183105469 40.65999984741211 111.76000213623047 39.18000030517578 111.62000274658203 C37.69999694824219 111.4800033569336 36.068748474121094 111.16374969482422 34.445621490478516 110.75499725341797 C32.82249450683594 110.34624481201172 31.207496643066406 109.84500122070312 29.75999641418457 109.33499908447266 C28.312496185302734 108.82499694824219 27.03249740600586 108.3062515258789 26.079374313354492 107.86250305175781 C25.126249313354492 107.41874694824219 24.5 107.05000305175781 24.360000610351562 106.83999633789062 C24.220001220703125 106.62999725341797 24.566251754760742 106.07749938964844 25.258440017700195 105.29405975341797 C25.95062828063965 104.5106201171875 26.988752365112305 103.49624633789062 28.232501983642578 102.36249542236328 C29.47625160217285 101.22874450683594 30.925626754760742 99.97562408447266 32.44031524658203 98.71468353271484 C33.95500183105469 97.45375061035156 35.535003662109375 96.18499755859375 37.040000915527344 95.0199966430664 C37.97999954223633 94.29499816894531 39.00187683105469 93.50093841552734 40.09410095214844 92.65593719482422 C41.18632888793945 91.8109359741211 42.34890365600586 90.91500091552734 43.5703125 89.98625183105469 C44.791717529296875 89.05750274658203 46.07195281982422 88.09593963623047 47.39949035644531 87.11968994140625 C48.727027893066406 86.14344024658203 50.101871490478516 85.15250396728516 51.51249694824219 84.16500091552734 C52.92312240600586 83.17750549316406 54.369529724121094 82.19344329833984 55.84019470214844 81.23094177246094 C57.31085968017578 80.26844024658203 58.805782318115234 79.32750701904297 60.313438415527344 78.42625427246094 C61.82109451293945 77.52500915527344 63.34148406982422 76.66344451904297 64.86308288574219 75.85969543457031 C66.38468933105469 75.05593872070312 67.90750122070312 74.30999755859375 69.41999816894531 73.63999938964844"></path>
<path fill="#ff2b25" fill-opacity="1.0"  filling="0" d="M95.04000091552734 87.81999969482422 C95.04000091552734 89.25 94.19499969482422 89.93000030517578 92.98750305175781 90.25250244140625 C91.77999877929688 90.57499694824219 90.21000671386719 90.54000091552734 88.76000213623047 90.54000091552734 C87.31999969482422 90.54000091552734 86.125 90.58499908447266 85.125 90.74749755859375 C84.125 90.91000366210938 83.32000732421875 91.19000244140625 82.66000366210938 91.66000366210938 C82.39600372314453 91.8479995727539 82.22319793701172 92.26000213623047 82.01952362060547 92.88623809814453 C81.81584167480469 93.51248168945312 81.58128356933594 94.35295867919922 81.19376373291016 95.39791870117188 C80.80624389648438 96.44287872314453 80.26576232910156 97.69232177734375 79.45024108886719 99.136474609375 C78.63471984863281 100.58063507080078 77.54415893554688 102.21951293945312 76.05648040771484 104.0433578491211 C74.56880187988281 105.86719512939453 72.68400573730469 107.87599182128906 70.27999877929688 110.05999755859375 C68.4949951171875 111.68000030517578 66.73374938964844 113.16500091552734 65.07843780517578 114.47531127929688 C63.423126220703125 115.7856216430664 61.87375259399414 116.92124938964844 60.51250076293945 117.84249877929688 C59.15125274658203 118.76374816894531 57.978126525878906 119.47062683105469 57.075313568115234 119.9234390258789 C56.17250061035156 120.37625122070312 55.53999710083008 120.57499694824219 55.25999450683594 120.4800033569336 C54.69999694824219 120.29000091552734 53.87999725341797 118.80999755859375 53.13999938964844 117.1199951171875 C52.39999771118164 115.43000030517578 51.73999786376953 113.52999877929688 51.5 112.5 C49.90666580200195 112.96666717529297 47.648887634277344 113.04000091552734 45.407405853271484 112.91629791259766 C43.165924072265625 112.79259490966797 40.94074249267578 112.47185516357422 39.41259002685547 112.1503677368164 C37.88444519042969 111.82888793945312 37.05332946777344 111.50666809082031 37.599998474121094 111.37999725341797 C38.70800018310547 111.11599731445312 39.92559814453125 110.75279998779297 41.208797454833984 110.30719757080078 C42.49199676513672 109.8615951538086 43.840797424316406 109.3335952758789 45.21119689941406 108.73999786376953 C46.58159637451172 108.14640045166016 47.97359848022461 107.48719787597656 49.343196868896484 106.7791976928711 C50.712799072265625 106.07119750976562 52.05999755859375 105.31440734863281 53.340797424316406 104.52560424804688 C54.62159729003906 103.73680114746094 55.83599853515625 102.91600036621094 56.94000244140625 102.08000183105469 C57.900001525878906 101.3550033569336 59.08125305175781 100.4487533569336 60.349063873291016 99.47312927246094 C61.616878509521484 98.49750518798828 62.97125244140625 97.45249938964844 64.27750396728516 96.44999694824219 C65.58375549316406 95.44749450683594 66.84187316894531 94.48749542236328 67.91719055175781 93.68186950683594 C68.99250030517578 92.8762435913086 69.88499450683594 92.22499084472656 70.45999908447266 91.83999633789062 C71.12000274658203 91.39999389648438 72.195556640625 90.63777160644531 73.43037414550781 89.8066635131836 C74.66519165039062 88.97555541992188 76.05926513671875 88.07555389404297 77.3563003540039 87.36000061035156 C78.65333557128906 86.64443969726562 79.85333251953125 86.11332702636719 80.69999694824219 86.0199966430664 C81.7249984741211 85.90999603271484 83.13375091552734 85.77375030517578 84.6703109741211 85.6796875 C86.20687103271484 85.58562469482422 87.87124633789062 85.53375244140625 89.40750122070312 85.59249877929688 C90.94375610351562 85.6512451171875 92.35187530517578 85.82062530517578 93.37593841552734 86.1690673828125 C94.4000015258789 86.51750183105469 95.04000091552734 87.04499816894531 95.04000091552734 87.81999969482422"></path>
<path fill="#2f2f2f" fill-opacity="1.0"  filling="0" d="M79.27999877929688 72.13999938964844 C79.27999877929688 73.6933364868164 78.79999542236328 75.17111206054688 77.96221923828125 76.43037414550781 C77.12444305419922 77.68963623046875 75.92888641357422 78.7303695678711 74.4977798461914 79.40962982177734 C73.06666564941406 80.0888900756836 71.4000015258789 80.40666198730469 69.62000274658203 80.22000122070312 C68.09333801269531 80.05999755859375 66.65555572509766 79.586669921875 65.41703796386719 78.85407257080078 C64.17852020263672 78.12147521972656 63.139259338378906 77.12962341308594 62.40962600708008 75.93258666992188 C61.679996490478516 74.73554992675781 61.25999450683594 73.33332824707031 61.25999450683594 71.77999877929688 C61.25999450683594 70.22666931152344 61.6644401550293 68.72444152832031 62.37480926513672 67.40666961669922 C63.085182189941406 66.0888900756836 64.10147857666016 64.95555877685547 65.32518768310547 64.13999938964844 C66.54888916015625 63.32444381713867 67.97999572753906 62.82666778564453 69.5199966430664 62.779998779296875 C71.37999725341797 62.71500015258789 72.91999816894531 62.97624969482422 74.18374633789062 63.477500915527344 C75.44749450683594 63.97875213623047 76.43499755859375 64.72000122070312 77.18999481201172 65.61500549316406 C77.94499206542969 66.510009765625 78.46749877929688 67.55875396728516 78.8012466430664 68.67500305175781 C79.13499450683594 69.79125213623047 79.27999877929688 70.97500610351562 79.27999877929688 72.13999938964844"></path>
<path fill="#fffefd" fill-opacity="1.0"  filling="0" d="M59.0 107.5199966430664 C59.88999938964844 106.7699966430664 59.44499969482422 105.36000061035156 58.77750015258789 104.13749694824219 C58.11000061035156 102.91499328613281 57.220001220703125 101.87999725341797 57.220001220703125 101.87999725341797 L55.060001373291016 103.30999755859375 L52.900001525878906 104.73999786376953 C52.900001525878906 104.75 53.81999969482422 105.95999908447266 55.042503356933594 106.91000366210938 C56.26499938964844 107.86000061035156 57.790000915527344 108.55000305175781 59.0 107.5199966430664"></path>
<path fill="#fffefd" fill-opacity="1.0"  filling="0" d="M69.31999969482422 99.91999816894531 C70.20999908447266 99.16999816894531 69.73999786376953 97.66999816894531 69.04750061035156 96.35749816894531 C68.3550033569336 95.04499816894531 67.44000244140625 93.91999816894531 67.44000244140625 93.91999816894531 L65.13999938964844 95.69999694824219 L62.839996337890625 97.4800033569336 C62.849998474121094 97.4800033569336 63.86499786376953 98.6050033569336 65.18000030517578 99.47250366210938 C66.49500274658203 100.34000396728516 68.11000061035156 100.94999694824219 69.31999969482422 99.91999816894531"></path>
<path fill="#fffefd" fill-opacity="1.0"  filling="0" d="M74.0199966430664 97.4000015258789 C73.25999450683594 98.29000091552734 73.96499633789062 99.74500274658203 74.86000061035156 100.97750091552734 C75.75499725341797 102.20999908447266 76.83999633789062 103.22000122070312 76.83999633789062 103.22000122070312 C76.83999633789062 103.22000122070312 77.73999786376953 102.02999877929688 78.58999633789062 100.80249786376953 C79.44000244140625 99.57499694824219 80.24000549316406 98.30999755859375 80.04000091552734 98.16000366210938 C79.85000610351562 98.01000213623047 78.86000061035156 97.21500396728516 77.66000366210938 96.76000213623047 C76.45999908447266 96.30500030517578 75.05000305175781 96.19000244140625 74.0199966430664 97.4000015258789"></path>
<path fill="#fffefd" fill-opacity="1.0"  filling="0" d="M66.23999786376953 105.18000030517578 C65.47999572753906 106.06999969482422 65.9749984741211 107.66500091552734 66.73500061035156 109.01499938964844 C67.49500274658203 110.36499786376953 68.52000427246094 111.47000122070312 68.81999969482422 111.37999725341797 C69.1199951171875 111.28999328613281 70.11499786376953 110.3499984741211 71.03500366210938 109.43250274658203 C71.95500183105469 108.51499938964844 72.80000305175781 107.62000274658203 72.80000305175781 107.62000274658203 C72.80000305175781 107.62000274658203 71.66999816894531 106.40499877929688 70.28500366210938 105.49250030517578 C68.9000015258789 104.58000183105469 67.25999450683594 103.97000122070312 66.23999786376953 105.18000030517578"></path>
<path fill="#606568" fill-opacity="1.0"  filling="0" d="M130.33999633789062 50.839996337890625 C129.20999145507812 51.589996337890625 129.02000427246094 52.76499938964844 129.27749633789062 54.07999801635742 C129.53500366210938 55.39500045776367 130.239990234375 56.85000228881836 130.89999389648438 58.160003662109375 C131.55999755859375 59.470001220703125 132.10000610351562 60.724998474121094 132.49249267578125 62.09749984741211 C132.88499450683594 63.470001220703125 133.1300048828125 64.95999908447266 133.1999969482422 66.73999786376953 C133.24000549316406 67.8066635131836 133.17555236816406 69.15777587890625 133.0577850341797 70.55851745605469 C132.94000244140625 71.95925903320312 132.76889038085938 73.40962982177734 132.59555053710938 74.67481231689453 C132.42222595214844 75.94000244140625 132.24667358398438 77.02000427246094 132.1199951171875 77.68000030517578 C131.9499969482422 78.58999633789062 131.55999755859375 80.04000091552734 131.54750061035156 81.34750366210938 C131.53500366210938 82.65499877929688 131.89999389648438 83.82000732421875 133.24000549316406 84.16000366210938 C134.92999267578125 84.58000183105469 136.00999450683594 84.13500213623047 136.75999450683594 83.26750183105469 C137.50999450683594 82.39999389648438 137.92999267578125 81.11000061035156 138.3000030517578 79.83999633789062 C138.6266632080078 78.73999786376953 138.89999389648438 77.26000213623047 139.1133270263672 75.64962768554688 C139.32666015625 74.03926086425781 139.47999572753906 72.29851531982422 139.56666564941406 70.67703247070312 C139.65333557128906 69.05555725097656 139.67333984375 67.55332946777344 139.6199951171875 66.41999816894531 C139.4933319091797 63.99333190917969 139.1377716064453 61.891109466552734 138.6785125732422 60.10444259643555 C138.21926879882812 58.31777572631836 137.6562957763672 56.84666442871094 137.1148223876953 55.682220458984375 C136.57333374023438 54.51777648925781 136.05332946777344 53.659996032714844 135.67999267578125 53.099998474121094 C135.1199951171875 52.2599983215332 134.33499145507812 51.32499694824219 133.4149932861328 50.78499984741211 C132.4949951171875 50.244998931884766 131.44000244140625 50.099998474121094 130.33999633789062 50.839996337890625"></path>
<path fill="#606568" fill-opacity="1.0"  filling="0" d="M146.75999450683594 55.339996337890625 C146.00999450683594 55.939998626708984 146.00999450683594 57.1349983215332 146.27999877929688 58.37999725341797 C146.54998779296875 59.625 147.08999633789062 60.91999816894531 147.4199981689453 61.720001220703125 C147.75 62.52000045776367 147.9949951171875 63.47999954223633 148.15750122070312 64.52749633789062 C148.3199920654297 65.57499694824219 148.39999389648438 66.70999908447266 148.39999389648438 67.86000061035156 C148.39999389648438 68.66000366210938 148.3199920654297 69.98500061035156 148.21499633789062 71.36750030517578 C148.11000061035156 72.75 147.98001098632812 74.19000244140625 147.8800048828125 75.22000122070312 C147.74000549316406 76.76000213623047 147.7100067138672 77.99000549316406 148.0 78.88749694824219 C148.2899932861328 79.78500366210938 148.89999389648438 80.3499984741211 150.0399932861328 80.55999755859375 C151.82000732421875 80.88999938964844 152.7449951171875 79.86000061035156 153.2675018310547 78.5 C153.79000854492188 77.13999938964844 153.91000366210938 75.44999694824219 154.0800018310547 74.45999908447266 C154.20999145507812 73.66999816894531 154.33499145507812 71.9749984741211 154.40249633789062 70.17250061035156 C154.47000122070312 68.3699951171875 154.48001098632812 66.45999908447266 154.3800048828125 65.23999786376953 C154.29000854492188 64.02000427246094 153.9550018310547 62.525001525878906 153.46749877929688 61.064998626708984 C152.97999572753906 59.60499572753906 152.33999633789062 58.179996490478516 151.63999938964844 57.099998474121094 C151.07000732421875 56.25 150.32000732421875 55.43499755859375 149.4774932861328 55.019996643066406 C148.63499450683594 54.60499572753906 147.6999969482422 54.589996337890625 146.75999450683594 55.339996337890625"></path>
<path fill="#606568" fill-opacity="1.0"  filling="0" d="M115.31999969482422 49.44000244140625 C113.77999877929688 50.230003356933594 113.8499984741211 51.945003509521484 114.40999603271484 53.68500518798828 C114.97000122070312 55.42500305175781 116.02000427246094 57.19000244140625 116.44000244140625 58.08000183105469 C116.72000122070312 58.673336029052734 117.04222106933594 59.50666809082031 117.34444427490234 60.507408142089844 C117.64666748046875 61.508148193359375 117.92889404296875 62.676300048828125 118.12889099121094 63.93926239013672 C118.32888793945312 65.20222473144531 118.44667053222656 66.55999755859375 118.41999816894531 67.94000244140625 C118.38666534423828 69.3133316040039 118.32888793945312 70.69999694824219 118.24073791503906 72.0237045288086 C118.152587890625 73.347412109375 118.03407287597656 74.60814666748047 117.87925720214844 75.72962951660156 C117.72444915771484 76.85111236572266 117.53334045410156 77.83332824707031 117.30000305175781 78.5999984741211 C116.99000549316406 79.5999984741211 116.3800048828125 80.94999694824219 116.02249908447266 82.2249984741211 C115.66500091552734 83.5 115.55999755859375 84.69999694824219 116.26000213623047 85.4000015258789 C117.29000091552734 86.43000030517578 118.63500213623047 86.41000366210938 119.86499786376953 85.71499633789062 C121.09500122070312 85.02000427246094 122.20999908447266 83.6500015258789 122.77999877929688 81.9800033569336 C123.19999694824219 80.75 123.54249572753906 79.57499694824219 123.8168716430664 78.4046859741211 C124.09124755859375 77.234375 124.29750061035156 76.0687484741211 124.44499969482422 74.85749816894531 C124.59249877929688 73.64624786376953 124.68124389648438 72.38937377929688 124.72061920166016 71.03656005859375 C124.75999450683594 69.68374633789062 124.75 68.23500061035156 124.69999694824219 66.63999938964844 C124.6520004272461 64.92399597167969 124.43199920654297 63.11199951171875 124.07392120361328 61.329917907714844 C123.7158432006836 59.54783630371094 123.21968078613281 57.795677185058594 122.6193618774414 56.19935989379883 C122.01904296875 54.6030387878418 121.31455993652344 53.162559509277344 120.53984069824219 52.003841400146484 C119.76512145996094 50.845123291015625 118.920166015625 49.968162536621094 118.03887939453125 49.49888229370117 C117.15760040283203 49.02960205078125 116.24000549316406 48.96800231933594 115.31999969482422 49.44000244140625"></path>
<path fill="#fffefd" fill-opacity="1.0"  filling="0" d="M57.779998779296875 112.5999984741211 C57.019996643066406 113.48999786376953 57.464996337890625 114.97000122070312 58.099998474121094 116.22749328613281 C58.7349967956543 117.48500061035156 59.55999755859375 118.5199966430664 59.55999755859375 118.5199966430664 L61.86000061035156 116.91999816894531 L64.16000366210938 115.31999969482422 C64.16000366210938 115.31999969482422 63.08000183105469 114.03500366210938 61.74250030517578 113.05249786376953 C60.404998779296875 112.06999969482422 58.80999755859375 111.38999938964844 57.779998779296875 112.5999984741211"></path>
<path fill="#fffefd" fill-opacity="1.0"  filling="0" d="M77.68000030517578 92.5999984741211 C78.55000305175781 91.81999969482422 78.2449951171875 90.5999984741211 77.72249603271484 89.57499694824219 C77.19999694824219 88.55000305175781 76.45999908447266 87.72000122070312 76.45999908447266 87.72000122070312 C76.45999908447266 87.72000122070312 72.23999786376953 90.26000213623047 72.41999816894531 90.54000091552734 C72.62999725341797 90.83999633789062 73.4749984741211 91.77999877929688 74.50250244140625 92.43250274658203 C75.52999877929688 93.08499908447266 76.74000549316406 93.44999694824219 77.68000030517578 92.5999984741211"></path></svg>